<mxfile host="app.diagrams.net" modified="2022-11-03T07:21:51.467Z" agent="5.0 (Macintosh; Intel Mac OS X 10_15_7) AppleWebKit/537.36 (KHTML, like Gecko) Chrome/107.0.0.0 Safari/537.36 Edg/107.0.1418.28" etag="bR-5aXkZwwYQskIDfLZS" version="20.3.0" type="github">
  <diagram name="Page-1" id="197159a0-c6a4-9194-75a8-e4174976684c">
    <mxGraphModel dx="1302" dy="786" grid="1" gridSize="10" guides="1" tooltips="1" connect="1" arrows="1" fold="1" page="1" pageScale="1.5" pageWidth="1169" pageHeight="826" background="none" math="0" shadow="0">
      <root>
        <mxCell id="0" style=";html=1;" />
        <mxCell id="1" style=";html=1;" parent="0" />
        <mxCell id="1257a543d1cacc4b-9" value="WAN" style="shadow=0;dashed=0;html=1;strokeColor=none;fillColor=#4495D1;labelPosition=center;verticalLabelPosition=middle;verticalAlign=middle;shape=mxgraph.veeam.2d.cloud;fontSize=14;align=center;" parent="1" vertex="1">
          <mxGeometry x="670" y="230" width="170" height="60" as="geometry" />
        </mxCell>
        <mxCell id="1257a543d1cacc4b-52" value="iKuai" style="text;strokeColor=none;fillColor=none;html=1;fontSize=24;fontStyle=1;verticalAlign=middle;align=center;" parent="1" vertex="1">
          <mxGeometry x="160" y="60" width="1420" height="40" as="geometry" />
        </mxCell>
        <mxCell id="BYh6js6m615-3mg1nOuH-4" style="edgeStyle=orthogonalEdgeStyle;rounded=0;orthogonalLoop=1;jettySize=auto;html=1;strokeColor=#0000FF;strokeWidth=4;" edge="1" parent="1" source="BYh6js6m615-3mg1nOuH-2" target="1257a543d1cacc4b-9">
          <mxGeometry relative="1" as="geometry" />
        </mxCell>
        <mxCell id="BYh6js6m615-3mg1nOuH-2" value="" style="fontColor=#0066CC;verticalAlign=top;verticalLabelPosition=bottom;labelPosition=center;align=center;html=1;outlineConnect=0;fillColor=#CCCCCC;strokeColor=#6881B3;gradientColor=none;gradientDirection=north;strokeWidth=2;shape=mxgraph.networks.wireless_hub;" vertex="1" parent="1">
          <mxGeometry x="520" y="330" width="145" height="87.5" as="geometry" />
        </mxCell>
        <mxCell id="BYh6js6m615-3mg1nOuH-3" value="iKuai&lt;br style=&quot;font-size: 13px;&quot;&gt;" style="text;html=1;align=center;verticalAlign=middle;resizable=0;points=[];autosize=1;strokeColor=none;fillColor=none;fontSize=13;" vertex="1" parent="1">
          <mxGeometry x="560" y="360" width="50" height="30" as="geometry" />
        </mxCell>
        <mxCell id="BYh6js6m615-3mg1nOuH-6" value="" style="shape=image;imageAspect=0;aspect=fixed;verticalLabelPosition=bottom;verticalAlign=top;image=https://media.threatpost.com/wp-content/uploads/sites/103/2021/01/19094217/OpenWrt-Forum-resize.jpg;" vertex="1" parent="1">
          <mxGeometry x="820" y="326.76" width="147" height="90.74" as="geometry" />
        </mxCell>
        <mxCell id="BYh6js6m615-3mg1nOuH-7" value="10.0.0.1/wan/" style="sketch=0;aspect=fixed;pointerEvents=1;shadow=0;dashed=0;html=1;strokeColor=none;labelPosition=right;verticalLabelPosition=middle;verticalAlign=middle;align=left;fillColor=#00188D;shape=mxgraph.mscae.enterprise.network_card;fontSize=15;" vertex="1" parent="1">
          <mxGeometry x="855.72" y="430" width="28.57" height="20" as="geometry" />
        </mxCell>
        <mxCell id="BYh6js6m615-3mg1nOuH-24" style="edgeStyle=orthogonalEdgeStyle;rounded=0;orthogonalLoop=1;jettySize=auto;html=1;dashed=1;strokeColor=#0000FF;strokeWidth=3;fontSize=15;fontColor=#FF0000;" edge="1" parent="1" source="BYh6js6m615-3mg1nOuH-12" target="BYh6js6m615-3mg1nOuH-20">
          <mxGeometry relative="1" as="geometry" />
        </mxCell>
        <mxCell id="BYh6js6m615-3mg1nOuH-12" value="192.168.15.254/br-lan/" style="pointerEvents=1;shadow=0;dashed=0;html=1;strokeColor=none;fillColor=#4495D1;labelPosition=right;verticalLabelPosition=middle;verticalAlign=middle;align=left;outlineConnect=0;shape=mxgraph.veeam.2d.network_card;fontSize=15;" vertex="1" parent="1">
          <mxGeometry x="857.5" y="452" width="25" height="20" as="geometry" />
        </mxCell>
        <mxCell id="BYh6js6m615-3mg1nOuH-14" style="edgeStyle=orthogonalEdgeStyle;rounded=0;orthogonalLoop=1;jettySize=auto;html=1;entryX=0;entryY=0.5;entryDx=0;entryDy=0;entryPerimeter=0;fontColor=#CCFFCC;strokeColor=#FF0080;strokeWidth=3;dashed=1;" edge="1" parent="1" source="BYh6js6m615-3mg1nOuH-13" target="BYh6js6m615-3mg1nOuH-7">
          <mxGeometry relative="1" as="geometry" />
        </mxCell>
        <mxCell id="BYh6js6m615-3mg1nOuH-13" value="10.0.0.2/wan2/" style="sketch=0;aspect=fixed;pointerEvents=1;shadow=0;dashed=0;html=1;strokeColor=none;labelPosition=left;verticalLabelPosition=middle;verticalAlign=middle;align=right;fillColor=#00188D;shape=mxgraph.mscae.enterprise.network_card;fontSize=16;" vertex="1" parent="1">
          <mxGeometry x="630" y="430" width="28.57" height="20" as="geometry" />
        </mxCell>
        <mxCell id="BYh6js6m615-3mg1nOuH-19" style="edgeStyle=orthogonalEdgeStyle;rounded=0;orthogonalLoop=1;jettySize=auto;html=1;strokeColor=#0000FF;fontColor=#CCFFCC;strokeWidth=4;" edge="1" parent="1" source="BYh6js6m615-3mg1nOuH-15" target="BYh6js6m615-3mg1nOuH-20">
          <mxGeometry relative="1" as="geometry">
            <Array as="points" />
          </mxGeometry>
        </mxCell>
        <mxCell id="BYh6js6m615-3mg1nOuH-15" value="" style="fontColor=#0066CC;verticalAlign=top;verticalLabelPosition=bottom;labelPosition=center;align=center;html=1;outlineConnect=0;fillColor=#CCCCCC;strokeColor=#6881B3;gradientColor=none;gradientDirection=north;strokeWidth=2;shape=mxgraph.networks.terminal;" vertex="1" parent="1">
          <mxGeometry x="606.25" y="560" width="72.5" height="47" as="geometry" />
        </mxCell>
        <mxCell id="BYh6js6m615-3mg1nOuH-20" value="192.168.15.251/lan1/" style="pointerEvents=1;shadow=0;dashed=0;html=1;strokeColor=none;fillColor=#4495D1;labelPosition=left;verticalLabelPosition=middle;verticalAlign=middle;align=right;outlineConnect=0;shape=mxgraph.veeam.2d.network_card;fontSize=15;" vertex="1" parent="1">
          <mxGeometry x="630" y="452" width="25" height="20" as="geometry" />
        </mxCell>
      </root>
    </mxGraphModel>
  </diagram>
</mxfile>
